<svg width="16" height="16" viewBox="0 0 16 16" fill="none" xmlns="http://www.w3.org/2000/svg">
<path d="M15.1479 14.352L11.6274 10.8322C12.6478 9.60714 13.1566 8.03586 13.048 6.44521C12.9394 4.85456 12.2218 3.36702 11.0443 2.29202C9.8669 1.21702 8.32035 0.637343 6.72641 0.673568C5.13247 0.709792 3.61386 1.35913 2.48648 2.48651C1.3591 3.61389 0.709762 5.1325 0.673537 6.72644C0.637312 8.32038 1.21699 9.86693 2.29199 11.0444C3.36699 12.2218 4.85453 12.9394 6.44518 13.048C8.03583 13.1566 9.60711 12.6478 10.8322 11.6274L14.352 15.148C14.4043 15.2002 14.4663 15.2417 14.5346 15.27C14.6029 15.2983 14.6761 15.3128 14.75 15.3128C14.8239 15.3128 14.8971 15.2983 14.9654 15.27C15.0336 15.2417 15.0957 15.2002 15.1479 15.148C15.2002 15.0957 15.2417 15.0337 15.2699 14.9654C15.2982 14.8971 15.3128 14.8239 15.3128 14.75C15.3128 14.6761 15.2982 14.6029 15.2699 14.5346C15.2417 14.4663 15.2002 14.4043 15.1479 14.352ZM1.81248 6.87501C1.81248 5.87374 2.10939 4.89496 2.66566 4.06243C3.22194 3.22991 4.01259 2.58104 4.93764 2.19787C5.86269 1.8147 6.88059 1.71444 7.86262 1.90978C8.84465 2.10512 9.7467 2.58728 10.4547 3.29528C11.1627 4.00328 11.6449 4.90533 11.8402 5.88736C12.0355 6.86939 11.9353 7.88729 11.5521 8.81234C11.169 9.73739 10.5201 10.528 9.68755 11.0843C8.85503 11.6406 7.87625 11.9375 6.87498 11.9375C5.53278 11.936 4.24597 11.4022 3.29689 10.4531C2.34781 9.50401 1.81397 8.21721 1.81248 6.87501Z" fill="#E07B67"/>
</svg>
